<svg xmlns="http://www.w3.org/2000/svg" viewBox="0 0 100 100" fill="none">
  <!-- Brain icon for neurotype planner -->
  <circle cx="50" cy="50" r="45" fill="#6366f1" opacity="0.1"/>
  <path d="M50 20 C35 20, 25 30, 25 45 C25 55, 30 60, 35 65 C30 70, 28 75, 30 80 C32 85, 38 88, 45 88 C48 88, 51 87, 54 86 C56 90, 60 92, 65 92 C72 92, 78 88, 80 82 C82 76, 80 70, 75 66 C78 62, 80 57, 80 52 C80 45, 78 38, 73 33 C68 28, 60 25, 52 25 C50 23, 50 20, 50 20 Z" fill="#6366f1" stroke="#4f46e5" stroke-width="2"/>
  <circle cx="42" cy="45" r="3" fill="#4f46e5"/>
  <circle cx="58" cy="48" r="3" fill="#4f46e5"/>
  <path d="M45 55 Q50 58, 55 55" stroke="#4f46e5" stroke-width="2" fill="none" stroke-linecap="round"/>
  <path d="M35 40 Q40 35, 45 40" stroke="#818cf8" stroke-width="1.5" fill="none" stroke-linecap="round"/>
  <path d="M55 42 Q60 37, 65 42" stroke="#818cf8" stroke-width="1.5" fill="none" stroke-linecap="round"/>
</svg>
